<svg width="29" height="29" fill="none" xmlns="http://www.w3.org/2000/svg"><g clip-path="url(#clip0_278_418)" fill="#FFC700"><path d="M26.718 7.815l-9.063-4.984a.906.906 0 00-.873 0L7.719 7.815a.906.906 0 000 1.588l8.593 4.727v9.712l-2.751-1.513-.874 1.588 4.095 2.252a.905.905 0 00.873 0l9.063-4.985a.906.906 0 00.47-.793V8.609a.906.906 0 00-.47-.794zm-9.5-3.155L24.4 8.61l-7.182 3.95-7.181-3.95 7.181-3.95zm8.157 15.195l-7.25 3.987V14.13l7.25-3.988v9.713z"/><path d="M1.813 14.5h7.25v-1.813h-7.25V14.5zm1.812 7.25h7.25v-1.813h-7.25v1.813zm1.813-3.625h7.25v-1.813h-7.25v1.813z"/></g><defs><clipPath id="clip0_278_418"><path fill="#fff" d="M0 0h29v29H0z"/></clipPath></defs></svg>