<svg width="23" height="23" fill="none" xmlns="http://www.w3.org/2000/svg"><path d="M22.915 22.26L7.425.2a.47.47 0 00-.854.27v22.06c0 .26.21.47.47.47h15.49a.47.47 0 00.384-.74zM7.51 22.062v-1.408h1.408v-.939H7.51v-2.347h1.408v-.938H7.51v-2.347h1.408v-.94H7.51v-2.346h1.408v-.939H7.51V7.51h1.408v-.939H7.51V1.955L21.627 22.06H7.51z" fill="#FFC700"/><path d="M10.561 18.776h4.929a.47.47 0 00.375-.752l-4.928-6.57a.47.47 0 00-.845.28v6.572c0 .26.21.47.47.47zm.47-5.633l3.52 4.694h-3.52v-4.694zM5.163 0H.47A.47.47 0 000 .47v22.06c0 .26.21.47.47.47h4.693c.26 0 .47-.21.47-.47V.47a.47.47 0 00-.47-.47zm-.47 22.061H.94V19.95h1.877v-.939H.94v-2.816h1.877v-.939H.94V11.97h1.877v-.938H.94V7.745h1.877v-.939H.94V3.99h1.877v-.94H.94V.939h3.755V22.06z" fill="#FFC700"/></svg>