<svg width="52" height="45" fill="none" xmlns="http://www.w3.org/2000/svg"><path d="M26 5.023c-2.253 0-4.198-1.396-4.897-3.451 1.333.357 3.033.572 4.897.572 1.864 0 3.563-.215 4.896-.572-.698 2.054-2.643 3.451-4.896 3.451z" fill="#FFC700"/><path d="M.065 7.55c.107-.292.33-.532.62-.662l9.913-4.452A49.028 49.028 0 0117.025.791c.076-.014.152-.021.227-.021.537 0 1.018.36 1.138.889.792 3.392 3.88 5.932 7.61 5.932 3.731 0 6.818-2.54 7.61-5.932a1.16 1.16 0 011.138-.89c.075 0 .151.008.227.022 2.17.401 4.318.95 6.43 1.645l9.91 4.451c.292.131.517.371.618.663.106.296.087.615-.062.893l-4.304 8.262a1.172 1.172 0 01-1.044.627c-.112 0-.226-.015-.338-.048l-4.78-1.378v27.72c0 .63-.528 1.144-1.177 1.144H11.772c-.647 0-1.174-.514-1.174-1.143v-27.72l-4.783 1.377a1.177 1.177 0 01-1.382-.579L.126 8.443a1.119 1.119 0 01-.062-.893z" fill="#FFC700"/></svg>