<svg width="94" height="62" fill="none" xmlns="http://www.w3.org/2000/svg"><path d="M13.825 16.267c.02.087-1 5.018-3.13 14.788-.421 1.91-.63 3.042-.546 3.398.15.322.229.492.241.541.737.823 1.786 1.368 3.156 1.653l.054-.012c.204-1.149.691-3.509 1.499-7.08.245-.488 2.09-3.641 5.594-9.46.408-.683.75-1.245 1.037-1.72-1.852 8.99-2.764 10.812-1.653 15.59.866 3.712 1.736 2.637 4.962 3.377-.008-.037.005-.058.042-.066-1.353-4.592-1.657-5.316-.729-12.499.421-3.248 2.182-8.535 4.417-13.503.937-1.467 1.328-2.55 1.166-3.24l-.058-.248c-.221-.942-1.278-1.69-3.197-2.24l-.088.02c-.2.195-.304.315-.3.331-.566.368-2.148 2.641-4.604 6.89-3.36 5.803-4.966 10.019-4.95 10.089l-.053.012-.013-.053L18.1 16.99c.937-3.827 1.573-5.786 1.544-5.984l-.012-.054c-.117-.496-1.536-1.013-4.263-1.562-.087.02-.545.574-1.203 1.715-1.936 3.418-3.975 7.758-6.29 12.949.495-2.153.412-1.934 1.095-4.43.658-2.435.774-3.716.774-3.96l-.112-.236c-.32-.413-1.482-.93-3.9-1.442l-.055.012c-1.049 1.889-1.902 3.15-2.535 3.761C1.815 19.09.758 19.97 0 20.351c.595.855 1.382 1.161 2.364.934l.038-.009c.591-.136 1.182-.421 1.773-.876l.109-.025-2.685 13.123c-.346 1.595-.712 1.004-.637 1.34l.045.193c.063.269.196.517.388.773 1.236.856 2.21 1.327 2.943 1.38l.054-.012 1.299-3.98c.07-.351 2.81-5.972 8.134-16.925z" fill="#FC0"/><path d="M27.033 22.103c-.807 3.327-.978 5.815-.6 7.448l.072.302c.046.194.12.438.291.756.22.455.72.901 1.511 1.223 1.128.471 1.982.575 2.498.455l.054-.012c.445-.104.853-.385 1.174-.868.47-.728.937-1.488 1.436-2.236.092.148.287.343.575.599a9.643 9.643 0 001.519.773c1.14.45 1.923.645 2.385.537l.163-.037c.195-.046.395-.165.6-.343.124-.029.457-.459.92-1.314.157-.277.857-1.46 2.093-3.526.167.31.383.587.666.814.179.203.595.538 1.245.967.416.26.828.484 1.199.625 1.382.524 2.705.611 3.938.33l.233-.054c.949-.219 1.881-.657 2.764-1.31 1.04-.781 1.678-1.864 1.906-3.224.067-.446.088-1.087.067-1.905-.033-.798-.312-2.397-.762-4.803a16.257 16.257 0 01-.287-2.199c-.03-.777-.012-1.343.042-1.673.495-1.104.67-1.968.537-2.555l-.03-.124a.996.996 0 00-.166-.392c-.191-.331-.404-.525-.674-.633-.433-.16-.891-.339-1.3-.392-.761-.124-1.34-.104-1.772-.004a8.27 8.27 0 00-.62 1.058 6.31 6.31 0 00-.405 1.103c-.091.34-.141.76-.179 1.257-.245.318-.432.566-.599.735-.658.732-2.702 2-3.63 2.55-.296.182-.45.253-.445.273.545.567 1.174.76 1.906.591.516-.12 2.31-1.012 2.877-1.426l.016-.004.004.017c.034.14.055.231.05.29l.741 4.149c.233 1.33.342 2.186.354 2.575.025.909-.125 1.657-.412 2.265-.054.181-.241.504-.57.954-.496.546-.945.872-1.374.972l-.054.012c-.017.004-.017.004-.033.025-.021-.013-.021-.013-.042-.008l-.07.016c-.234.054-.484.037-.78-.025-.561-.227-.898-.541-1.002-.988l-.03-.123c-.137-.587.088-1.406.583-2.51.163-.355.454-.888 1-1.615.603-.81 1.098-1.261 1.427-1.393l-.004-.017c-1.37-1.426-2.706-1.996-3.971-1.686a2.804 2.804 0 00-.475.145c-.291.124-.445.194-.441.215-.404.615-.683 1.111-.841 1.483-.512 1.158-.824 2.19-.937 3.1a39.92 39.92 0 01-1.265 1.84c-.97 1.343-1.624 2.095-1.998 2.177-.125.03-.333.021-.587-.016.79-3.306 1.79-7.353 3.122-12.073.196-.698.32-1.12.283-1.298-.08-.339-.516-.686-1.336-.888l-3.014-.732-.017.004c-.033.1-.125.517-.262 1.22l-.017.004a4.875 4.875 0 00-.695-.232 7.68 7.68 0 00-1.586-.178c-1.24.021-2.01.108-2.315.178-1.115.798-2.285 2.488-3.409 5.105a23.734 23.734 0 00-1.245 3.674zm4.784-2.277a21.488 21.488 0 011.594-3.435c.541-.91 1.036-1.53 1.403-1.914l.041.009c.417.24.75.558 1.05.938l-2.282 10.51c-.046.124-.379.554-.974 1.31-.824 1.071-1.44 1.658-1.836 1.749-.008-.012-.008-.012-.029-.008l-.037.008a1.42 1.42 0 01-.587-.017c-.188-2.517.358-5.58 1.657-9.15zm22.999 4.592c.033.14.337.392.932.76 1.437.661 2.715.967 3.855.93l.43-.1c.623-.144 1.335-.66 2.135-1.5.362-.384.982-1.198 1.665-2.554a26.258 26.258 0 002.102-5.683c.758-3.054 1.032-4.877.957-5.439l-.104-.442c-.416-1.794-2.052-2.989-4.92-3.567-.158.054-.37.273-.641.653-.55-.343-.995-.558-1.353-.624-.687.851-1.503 2.046-2.456 3.612-2.835 4.58-3.73 9.143-2.673 13.673l.071.28zm4.28-7.023c1.036-3.885 2.568-6.369 4.429-7.51.091.15.141.286.17.41l.038.16c.275 1.175.033 2.969-.741 5.39a22.284 22.284 0 01-2.156 4.815c-.7 1.207-1.308 1.91-1.716 2.17l-.016.005c-.188-.07-.32-.244-.392-.546l-.045-.194c-.23-.976-.146-2.567.428-4.7zm34.896-4.538c-.033-.797-.312-2.397-.761-4.802a16.225 16.225 0 01-.288-2.2c-.029-.776-.012-1.343.042-1.673.495-1.108.67-1.968.533-2.554l-.03-.124a.996.996 0 00-.166-.393c-.191-.33-.404-.525-.674-.632-.433-.162-.887-.34-1.299-.393-.766-.124-1.345-.103-1.773-.004a8.562 8.562 0 00-.62 1.058 6.22 6.22 0 00-.404 1.103c-.092.34-.142.76-.18 1.257-.245.318-.432.566-.599.736a10.076 10.076 0 01-2.377 1.93c-.295.182-.45.252-.445.268.545.567 1.174.76 1.906.591.52-.12 1.058-.392 1.624-.801l.017-.005.004.017c.033.14.054.231.045.29l.741 4.149c.234 1.33.338 2.186.354 2.575.025.91-.125 1.657-.416 2.265-.054.182-.242.504-.57.955-.496.545-.945.872-1.374.97l-.054.013c-.017.004-.017.004-.033.025-.021-.012-.021-.012-.042-.008l-.07.016c-.234.054-.484.037-.78-.024-.561-.228-.898-.542-1.003-.988l-.029-.124c-.137-.587.088-1.406.583-2.51.162-.355.454-.888 1-1.611.603-.81 1.098-1.265 1.427-1.393l-.004-.016c-1.37-1.426-2.706-1.997-3.972-1.687a2.385 2.385 0 00-.474.15c-.291.123-.446.193-.441.214-.404.616-.683 1.112-.841 1.484-.741 1.674-1.066 3.091-.974 4.24l-.52.744c-.837 1.182-1.445 1.81-1.82 1.897a1.804 1.804 0 01-.487.017l-.004-.017a374.184 374.184 0 013.03-11.733c.259-.922.4-1.439.363-1.6-.125-.533-1.108-.963-2.956-1.285-.99-.298-1.64-.41-1.906-.348l-.234.054c-.428.1-.87.554-1.323 1.352-.188.417-.866 1.545-2.036 3.385l-.004-.017c.116-.384.17-.636.133-.798-.096-.409-.612-.777-1.59-1-1.54-.376-2.465-.554-2.773-.653-.07.186-1.082 5.055-3.138 14.582-.167.748-.263 1.294-.171 1.686l.017.07c.112.48.457.906 1.015 1.282.733.392 1.524.715 2.36.992l.05-.03c.754-3.388 1.532-6.77 2.47-10.105.17-.636.648-1.587 1.448-2.765 1.786-2.674 2.947-4.083 3.397-4.183l.037-.008-2.306 10.8c-.167.748-.25 1.273-.175 1.591.154.657.624 1.224 1.449 1.612 1.607.752 2.668 1.013 3.13.91l.233-.054c.517-.12 1.091-.814 1.707-2.058a286.05 286.05 0 001.42-2.332c.075.079.15.157.237.228.179.202.595.537 1.245.967.42.26.828.483 1.198.624 1.387.525 2.706.612 3.939.33l.233-.053c.949-.22 1.881-.657 2.768-1.31 1.04-.782 1.678-1.864 1.906-3.224.075-.455.096-1.095.075-1.914zM19.582 56.83l.158-.034c.187-.04.358-.152.516-.322.113-.025.504-.707 1.278-1.98.296-.483.566-.921.816-1.335.034.194.071.385.113.579l.05.227c.024.116.266.314.736.616 1.141.541 2.16.798 3.073.777l.345-.074c.504-.108 1.074-.517 1.723-1.182.296-.302.8-.951 1.357-2.026a21.275 21.275 0 001.736-4.525c.38-1.464.616-2.567.733-3.315a1.7 1.7 0 00.629-.31c.628-.496 1.049-1.439 1.257-2.753a1.84 1.84 0 01.903-.48l.017-.003a.95.95 0 01.387-.009l-2.019 9.04c-.17.529-.217.925-.154 1.21l.025.116c.15.67.912 1.203 2.285 1.711.654.232 1.129.352 1.462.281l.087-.02c.329-.07.666-.323.949-.806.441-.72.945-1.558 1.515-2.484a.777.777 0 00.013.227l.041.186c.15.67 1.029 1.252 2.644 1.752.687-3.017 1.207-5.22 1.557-6.625.004-.6.557-2.091 1.96-4.335 1.108-1.794 2.265-3.15 3.206-4.208.12.554-.346 1.835-1.449 3.794-.94 1.666-1.707 2.835-2.24 3.546l1.033 4.67c.02.1.096.232.229.414.957 1 1.757 1.422 2.402 1.281l.216-.045c.358-.079.704-.558 1.208-1.397.516-.86.97-1.587 1.352-2.207.084.1.175.198.28.28.14.166.47.435.986.786a5.9 5.9 0 00.953.509c1.103.43 2.16.516 3.147.297l.188-.041c.761-.166 1.51-.508 2.223-1.021.84-.616 1.357-1.476 1.552-2.563.059-.355.08-.868.071-1.52-.02-.637-.229-1.922-.566-3.849-.137-.76-.196-1.36-.208-1.76-.017-.624.004-1.075.05-1.34.408-.88.553-1.57.45-2.037l-.021-.1a.86.86 0 00-.13-.313c-.15-.265-.32-.422-.532-.513-.346-.132-.708-.277-1.033-.326-.612-.108-1.074-.095-1.42-.021a6.155 6.155 0 00-.503.843 5.093 5.093 0 00-.333.88c-.075.27-.12.608-.154 1.005-.2.252-.354.45-.487.583a8 8 0 01-1.92 1.52c-.236.141-.361.199-.357.211.433.46.932.616 1.523.492.417-.09.85-.306 1.303-.628l.013-.004.004.012c.025.116.042.186.037.232l.554 3.327c.175 1.066.25 1.752.258 2.062.013.728-.112 1.323-.354 1.807-.041.144-.195.4-.462.756-.4.43-.766.69-1.107.764l-.042.009c-.012.004-.012.004-.025.02-.016-.012-.016-.012-.033-.008l-.058.013c-.188.04-.387.024-.62-.03-.446-.185-.716-.442-.791-.797l-.021-.1c-.104-.47.083-1.123.491-2 .133-.28.37-.706.816-1.28.487-.646.89-1.001 1.153-1.105l-.004-.012c-1.082-1.153-2.148-1.62-3.164-1.385a2.441 2.441 0 00-.383.112c-.233.095-.358.153-.354.165-.328.488-.557.88-.687 1.178-.59 1.294-.861 2.393-.82 3.303-.99 1.43-1.681 2.17-2.01 2.24l-.03.008a.904.904 0 01-.52-.037l-.058-.33-.441-1.993c-.03-.14-.059-.33-.096-.574.508-.633.982-1.199 1.328-1.736 1.907-2.877 2.664-5.03 2.369-6.353l-.017-.07c-.341-.52-1.09-.988-2.277-1.401-.779.364-2.206 1.988-4.288 4.89.416-1.658.833-3.241 1.257-4.783.683-2.418 1.012-3.653.995-3.724-.046-.215-.191-.392-.428-.504-.23-.157-1.229-.45-2.99-.872l-.029.008c-.041.12-1.207 5.456-3.6 15.991-1.058 1.6-1.795 2.608-2.153 3.055-.45.562-.795.888-1.07.95a.947.947 0 01-.403 0 403.146 403.146 0 012.772-10.171c.108-.34.15-.554.125-.67l-.012-.058c-.055-.244-.313-.467-.82-.64a12.02 12.02 0 00-2.473-.641c-.512-.14-.883-.24-1.153-.182l-.113.025c-.274.058-.52.231-.774.512l-.017.005-.016-.893c-.841-.608-1.67-.815-2.515-.633l-.2.046a.938.938 0 00-.253.087c.079.28.12.48.141.582.329 1.484.408 2.943.242 4.386-.633-.819-1.74-1.41-3.356-1.753-.125.041-.3.215-.516.517-.437-.277-.79-.455-1.074-.513-.558.674-1.22 1.625-1.998 2.869-1.728 2.723-2.59 5.451-2.573 8.175-.162.24-.333.488-.516.752-.907 1.273-1.52 1.972-1.89 2.054a1.435 1.435 0 01-.378-.008 319.63 319.63 0 012.426-8.96c.292-1.005.45-1.563.43-1.662l-.026-.116c-.054-.243-.387-.467-1.011-.69a82.695 82.695 0 01-2.436-.62l-.029.008c-.025.095-.828 3.6-2.38 10.52.02.086-.247.454-.75 1.16-.729.997-1.24 1.538-1.57 1.612a1.43 1.43 0 01-.378-.008 252.544 252.544 0 012.402-8.927c.308-1.054.474-1.596.45-1.695l-.026-.116c-.054-.243-.387-.467-1.011-.69a82.742 82.742 0 01-2.436-.62l-.029.008-2.369 10.515c.021.1-.24.471-.74 1.145-.741.996-1.266 1.558-1.595 1.633a1.444 1.444 0 01-.379-.009 298.284 298.284 0 012.31-8.593c.355-1.256.567-1.93.546-2.029l-.025-.115c-.046-.215-.32-.439-.828-.612-.454-.153-1.328-.368-2.619-.699l-.029.004c-.037.112-.882 4.03-2.643 11.714-.13.578-.217 1-.154 1.273l.02.099c.096.442.433.876 1.058 1.186 1.303.657 2.181.884 2.58.798l.159-.033c.258-.058.537-.281.853-.695.48-.835.891-1.537 1.253-2.079.034.157.333.422.875.765 1.31.624 2.164.889 2.58.798l.159-.033c.258-.058.537-.281.853-.695.479-.835.891-1.537 1.253-2.079.092.203.37.455.874.765 1.328.624 2.182.884 2.598.794zm6.415-8.444c.861-3.1 2.11-5.072 3.613-5.969.07.12.113.232.133.33l.03.13c.208.937 0 2.371-.642 4.302a17.793 17.793 0 01-1.769 3.831c-.57.959-1.061 1.517-1.394 1.724l-.013.004c-.15-.058-.254-.199-.308-.443l-.033-.157c-.18-.777-.1-2.05.383-3.752z" fill="#FC0"/><path d="M83.202 32.122l-.079-.356c-.316-1.438-1.615-2.41-3.9-2.897-.125.041-.3.215-.516.517-.438-.277-.791-.455-1.075-.513-.557.674-1.22 1.624-1.998 2.868-1.827 2.881-2.68 5.77-2.56 8.651-.233.33-.487.678-.753 1.042-.6.818-1.045 1.256-1.332 1.318a.894.894 0 01-.392-.004c.775-2.96 1.574-6.001 2.465-9.06.204-.703.316-1.083.291-1.199-.046-.198-.216-.371-.524-.528-.338-.166-1.029-.434-2.132-.596-.529-.153-.924-.231-1.195-.173-.345.074-.695.388-1.04.942-.096.244-.729 1.265-1.903 3.087.57-2.256 1.224-4.864 2.086-7.782.1-.364.183-.608.15-.748l-.004-.013c-.067-.297-.47-.57-1.237-.76-1.049-.265-1.76-.422-2.102-.53l-.017.005c-.041.145-.39 1.637-1.032 4.51a6914.14 6914.14 0 00-3.151 13.986c-.154.467-.188.86-.117 1.173l.009.042c.087.397.374.74.845 1.025.466.273 1.065.529 1.76.752l.013-.004c.47-2.15.97-4.257 1.461-6.32.187-.785.291-1.256.379-1.409.091-.335.458-.996 1.095-1.926 1.286-1.877 2.16-2.873 2.585-3.071l.017-.004-1.907 8.522c-.137.401-.167.74-.1 1.038l.013.058c.095.425.407.822.982 1.116 1.282.632 2.135.88 2.523.793l.112-.025a1.03 1.03 0 00.487-.256c.216-.182.479-.628.874-1.281.392-.653.741-1.215 1.045-1.69.017.074.03.152.046.227l.05.227c.025.116.266.314.737.616 1.14.541 2.16.798 3.072.777l.345-.075c.504-.107 1.074-.516 1.724-1.181.295-.302.799-.951 1.357-2.026a21.199 21.199 0 001.736-4.526c.624-2.434.862-3.889.807-4.34zm-3.168 3.972a17.597 17.597 0 01-1.769 3.831c-.57.959-1.061 1.517-1.394 1.724l-.017.004c-.146-.058-.254-.199-.308-.443l-.033-.157c-.175-.78-.092-2.054.387-3.757.866-3.1 2.11-5.071 3.613-5.968.07.12.113.232.133.33l.03.129c.212.942 0 2.376-.642 4.307zm12.806-8.73c-.196-.479-.559-.892-1.179-1.178-1.032-.462-1.815-.59-2.314-.466-.33.086-.654.305-.895.715-.467.756-.708 1.227-.812 1.372-.787-.637-1.594-1.087-2.452-1.364l-.025.012a7.748 7.748 0 00-.837 1.988c-.49 1.856-.932 4.084-1.282 6.654-.4 2.956-.72 6.056-.82 9.283-.146 4.377-.083 6.766.08 7.163l.1.248c.274.703 1.04 1.03 2.343.95l.037-.036c-.108-.29-.266-1.063-.3-2.307-.104-2.843.321-6.175 1.075-9.981.674.405 1.223.645 1.619.723 1.016.182 1.777.21 2.29.083.595-.294 1.381-1.377 2.214-3.32a17.385 17.385 0 001.149-3.653c.566-3.091.645-5.307.112-6.638l-.104-.247zm-1.957 3.261a19.257 19.257 0 01-.72 3.41c-.77 2.439-1.74 4.233-2.794 5.386a2.943 2.943 0 01-.945-.885c.517-2.22 1.274-5.055 2.302-8.49.741-1.07 1.29-1.64 1.628-1.743l.154-.05c.07-.017.192-.012.396.017.062.967.058 1.756-.021 2.355zM78.057 49.382a1.542 1.542 0 00-.429-.612c-6.452 1.017-11.114 1.835-13.987 2.463l-.816.178c-1.681.368-24.968 4.708-26.875 5.265-2.506.716-4.97 1.521-7.43 2.348-.163.037-.4.186-.729.475-.612.546-.878 1.017-.745 1.5l.037.067c.067.302.308.612.72.934 4.317-1.157 7.581-1.992 9.825-2.48l.374-.083.088-.04c.029.016.05.011.1.003l.374-.082c2.032-.443 25.693-4.741 28.07-5.063 3.13-.443 6.594-.831 10.374-1.216.916-1.607 1.245-2.773 1.087-3.492l-.038-.165z" fill="#FC0"/></svg>